# xmcd
#
# Track frame offsets:
#	150
#	23994
#	44716
#	74246
#	95498
#	118760
#	136884
#	155394
#	176368
#	196163
#	215612
#	238807
#
# Disc length: 3556 seconds
#
# Revision: 1
# Processed by: cddbd v1.5PL3 Copyright (c) Steve Scherf et al.
# Submitted via: CDex 1.50Beta5
#
DISCID=b30de20c
DTITLE=Phil Collins - Testify
DYEAR=2002
DGENRE=
TTITLE0=Wake Up Call
TTITLE1=Come With Me
TTITLE2=Testify
TTITLE3=Don't Get Me Started
TTITLE4=Swing Low
TTITLE5=It's Not Too Late
TTITLE6=This Love This Heart
TTITLE7=Driving Me Crazy
TTITLE8=Least You Can Do, The
TTITLE9=Can't Stop Loving You
TTITLE10=Thru My Eyes
TTITLE11=You Touch My Heart
EXTD=
EXTT0=
EXTT1=
EXTT2=
EXTT3=
EXTT4=
EXTT5=
EXTT6=
EXTT7=
EXTT8=
EXTT9=
EXTT10=
EXTT11=
PLAYORDER=
